<svg xmlns="http://www.w3.org/2000/svg" viewBox="0 0 496 512">
  <!--!Font Awesome Free 7.1.0 by @fontawesome - https://fontawesome.com License - https://fontawesome.com/license/free Copyright 2025 Fonticons, Inc.-->
  <path d="M248 8C111 8 0 119 0 256c0 109.8 71.4 203 170.5 235.9c12.5 2.3 17-5.4 17-12c0-6-.2-21.8-.3-42.8c-69.4 15.1-84-33.4-84-33.4c-11.4-28.9-27.8-36.7-27.8-36.7c-22.7-15.5 1.7-15.2 1.7-15.2c25.1 1.8 38.3 25.8 38.3 25.8c22.3 38.2 58.5 27.2 72.8 20.8c2.3-16.1 8.7-27.2 15.8-33.5c-55.4-6.3-113.6-27.7-113.6-123.3c0-27.2 9.7-49.5 25.6-66.9c-2.6-6.3-11.1-31.7 2.4-66.1c0 0 20.9-6.7 68.6 25.6c19.9-5.5 41.3-8.3 62.5-8.4c21.2.1 42.6 2.9 62.5 8.4c47.6-32.3 68.5-25.6 68.5-25.6c13.5 34.4 5 59.8 2.4 66.1c15.9 17.4 25.6 39.7 25.6 66.9c0 95.8-58.3 116.9-113.8 123.1c8.9 7.7 16.9 22.9 16.9 46.1c0 33.3-.3 60.1-.3 68.3c0 6.7 4.5 14.4 17.1 12c99-32.9 170.3-126.1 170.3-235.8C496 119 385 8 248 8z"/>
</svg>
